<svg width="41" height="32" viewBox="0 0 41 32" fill="none" xmlns="http://www.w3.org/2000/svg">
<path d="M39.2917 0H32.4583V4.8H29.0417V0H22.2083V4.8H18.7917V0H11.9583V4.8H8.54167V0H1.70833C1.25526 0 0.820734 0.168571 0.500359 0.468629C0.179985 0.768687 0 1.17565 0 1.6L0 30.4C0 30.8243 0.179985 31.2313 0.500359 31.5314C0.820734 31.8314 1.25526 32 1.70833 32H39.2917C39.7447 32 40.1793 31.8314 40.4996 31.5314C40.82 31.2313 41 30.8243 41 30.4V1.6C41 1.17565 40.82 0.768687 40.4996 0.468629C40.1793 0.168571 39.7447 0 39.2917 0V0ZM31.4656 20.502L29.0417 18.88V25.6C29.0417 26.0243 28.8617 26.4313 28.5413 26.7314C28.2209 27.0314 27.7864 27.2 27.3333 27.2H23.0625V20.8C23.0625 20.3757 22.8825 19.9687 22.5621 19.6686C22.2418 19.3686 21.8072 19.2 21.3542 19.2H19.6458C19.1928 19.2 18.7582 19.3686 18.4379 19.6686C18.1175 19.9687 17.9375 20.3757 17.9375 20.8V27.2H13.6667C13.2136 27.2 12.7791 27.0314 12.4587 26.7314C12.1383 26.4313 11.9583 26.0243 11.9583 25.6V18.88L9.53464 20.502L7.5487 17.898L19.507 9.898C19.798 9.70695 20.1447 9.60446 20.5 9.60446C20.8553 9.60446 21.202 9.70695 21.493 9.898L33.4513 17.898L31.4656 20.502Z" fill="white"/>
</svg>
