<svg width="38" height="32" viewBox="0 0 38 32" fill="none" xmlns="http://www.w3.org/2000/svg">
<path d="M17.4605 1.19568H20.6079V3.47638H17.4605V1.19568Z" fill="white"/>
<path d="M26.9036 1.19568H30.0511V3.47638H26.9036V1.19568Z" fill="white"/>
<path d="M8.01715 1.19568H11.1646V3.47638H8.01715V1.19568Z" fill="white"/>
<path d="M36.044 0H29.7755V4.8H26.6412V0H20.3727V4.8H17.2384V0H10.9699V4.8H7.83566V0H1.56713C1.1515 0 0.752896 0.168571 0.459002 0.468629C0.165108 0.768687 0 1.17565 0 1.6L0 30.4C0 30.8243 0.165108 31.2313 0.459002 31.5314C0.752896 31.8314 1.1515 32 1.56713 32H36.044C36.4596 32 36.8583 31.8314 37.1521 31.5314C37.446 31.2313 37.6111 30.8243 37.6111 30.4V1.6C37.6111 1.17565 37.446 0.768687 37.1521 0.468629C36.8583 0.168571 36.4596 0 36.044 0V0ZM28.8648 20.502L26.6412 18.88V25.6C26.6412 26.0243 26.4761 26.4313 26.1822 26.7314C25.8883 27.0314 25.4897 27.2 25.0741 27.2H21.1563V20.8C21.1563 20.3757 20.9912 19.9687 20.6973 19.6686C20.4034 19.3686 20.0048 19.2 19.5891 19.2H18.022C17.6064 19.2 17.2078 19.3686 16.9139 19.6686C16.62 19.9687 16.4549 20.3757 16.4549 20.8V27.2H12.537C12.1214 27.2 11.7228 27.0314 11.4289 26.7314C11.135 26.4313 10.9699 26.0243 10.9699 25.6V18.88L8.74655 20.502L6.92476 17.898L17.8947 9.898C18.1616 9.70695 18.4796 9.60446 18.8056 9.60446C19.1315 9.60446 19.4496 9.70695 19.7165 9.898L30.6864 17.898L28.8648 20.502Z" fill="white"/>
</svg>
