<svg width="19" height="19" viewBox="0 0 19 19" fill="none" xmlns="http://www.w3.org/2000/svg">
<path fill-rule="evenodd" clip-rule="evenodd" d="M9.35354 1.75458C10.5987 1.70691 11.8457 1.7401 13.0865 1.85393C13.6885 1.84641 14.2865 1.95121 14.8495 2.16291C15.6263 2.52251 16.2506 3.14272 16.6125 3.91446C16.8251 4.47528 16.9296 5.07081 16.9205 5.67C16.9205 6.59694 17.0205 6.90592 17.0205 9.37876C17.0685 10.6159 17.0351 11.8548 16.9205 13.0875C16.9281 13.6856 16.8226 14.2797 16.6095 14.8391C16.2476 15.6108 15.6233 16.231 14.8465 16.5906C14.2835 16.8023 13.6855 16.9071 13.0835 16.8996C12.1505 16.8996 11.8395 16.999 9.35054 16.999C8.10629 17.0455 6.86031 17.0113 5.62054 16.8966C5.01859 16.9042 4.42057 16.7994 3.85754 16.5877C3.08143 16.2291 2.45725 15.6103 2.09454 14.8401C1.88146 14.2807 1.77597 13.6866 1.78354 13.0885C1.78354 12.1616 1.68354 11.8526 1.68354 9.37976C1.63556 8.14266 1.66897 6.90376 1.78354 5.67099C1.77597 5.07295 1.88146 4.47881 2.09454 3.91943C2.2755 3.53702 2.52105 3.18822 2.82054 2.88817C3.06371 2.52781 3.43351 2.27059 3.85754 2.16688C4.42057 1.95519 5.01859 1.85038 5.62054 1.8579C6.86137 1.74407 8.10836 1.71089 9.35354 1.75855V1.75458ZM9.35354 0.106345C8.07504 0.059932 6.79487 0.0931139 5.52054 0.205696C4.73969 0.204805 3.96527 0.345889 3.23554 0.621976C2.60628 0.825911 2.03674 1.1796 1.57654 1.65225C1.10081 2.10946 0.744806 2.6753 0.539539 3.30048C0.21189 4.01076 0.067871 4.79107 0.120539 5.57064C0.00722166 6.8367 -0.026177 8.10856 0.0205394 9.37876C-0.0263443 10.6503 0.00705452 11.9235 0.120539 13.1909C0.118853 13.9651 0.259493 14.7331 0.535539 15.4571C0.740806 16.0822 1.09681 16.6481 1.57254 17.1053C2.03274 17.5779 2.60228 17.9316 3.23154 18.1355C3.96027 18.4098 4.73328 18.5495 5.51254 18.5479C6.78819 18.6606 8.06971 18.6938 9.34954 18.6472C10.6294 18.6938 11.9109 18.6606 13.1865 18.5479C13.9658 18.5495 14.7388 18.4098 15.4675 18.1355C16.0933 17.9218 16.6617 17.5691 17.1295 17.1043C17.5974 16.6395 17.9524 16.0747 18.1675 15.4531C18.4436 14.7291 18.5842 13.9611 18.5825 13.1869C18.5825 12.1566 18.6825 11.8476 18.6825 9.37479C18.7294 8.10326 18.696 6.83007 18.5825 5.5627C18.5842 4.7885 18.4436 4.0205 18.1675 3.2965C17.9623 2.67132 17.6063 2.10549 17.1305 1.64827C16.6702 1.17721 16.101 0.824912 15.4725 0.621976C14.7438 0.346246 13.9704 0.205169 13.1905 0.205696C11.9149 0.0929453 10.6334 0.0597632 9.35354 0.106345ZM9.35354 4.63973C8.7243 4.62952 8.09942 4.74513 7.51606 4.97967C6.93269 5.21422 6.40275 5.56291 5.95775 6.00502C5.51276 6.44713 5.16178 6.97363 4.92571 7.55321C4.68963 8.13279 4.57327 8.75361 4.58354 9.37876C4.58354 10.3161 4.8633 11.2323 5.38743 12.0116C5.91156 12.791 6.65654 13.3984 7.52814 13.7571C8.39974 14.1158 9.35883 14.2096 10.2841 14.0267C11.2094 13.8439 12.0593 13.3925 12.7264 12.7298C13.3935 12.067 13.8478 11.2226 14.0319 10.3033C14.2159 9.38402 14.1215 8.43116 13.7604 7.56521C13.3994 6.69927 12.788 5.95913 12.0036 5.4384C11.2192 4.91767 10.297 4.63973 9.35354 4.63973ZM9.35354 12.4696C8.94294 12.477 8.53506 12.4021 8.15424 12.2494C7.77343 12.0967 7.4275 11.8693 7.13712 11.5808C6.84673 11.2923 6.61786 10.9486 6.46416 10.5703C6.31045 10.1919 6.23508 9.78669 6.24254 9.37876C6.23508 8.97083 6.31045 8.5656 6.46416 8.18725C6.61786 7.80891 6.84673 7.46523 7.13712 7.17673C7.4275 6.88823 7.77343 6.66084 8.15424 6.50814C8.53506 6.35543 8.94294 6.28055 9.35354 6.28796C9.76413 6.28055 10.172 6.35543 10.5528 6.50814C10.9337 6.66084 11.2796 6.88823 11.57 7.17673C11.8603 7.46523 12.0892 7.80891 12.2429 8.18725C12.3966 8.5656 12.472 8.97083 12.4645 9.37876C12.472 9.78669 12.3966 10.1919 12.2429 10.5703C12.0892 10.9486 11.8603 11.2923 11.57 11.5808C11.2796 11.8693 10.9337 12.0967 10.5528 12.2494C10.172 12.4021 9.76413 12.477 9.35354 12.4696ZM14.3315 3.29948C14.1059 3.29948 13.8853 3.36597 13.6976 3.49053C13.51 3.61509 13.3638 3.79213 13.2774 3.99927C13.191 4.20641 13.1684 4.43433 13.2125 4.65423C13.2565 4.87413 13.3652 5.07611 13.5247 5.23465C13.6843 5.39318 13.8876 5.50115 14.1089 5.54489C14.3303 5.58863 14.5597 5.56618 14.7682 5.48038C14.9767 5.39458 15.1549 5.24929 15.2802 5.06287C15.4056 4.87645 15.4725 4.65728 15.4725 4.43308C15.4699 4.13323 15.3489 3.8464 15.1355 3.63437C14.922 3.42234 14.6333 3.30208 14.3315 3.29948Z" fill="white"/>
</svg>
