<svg width="19" height="16" viewBox="0 0 19 16" fill="none" xmlns="http://www.w3.org/2000/svg">
<path fill-rule="evenodd" clip-rule="evenodd" d="M5.93158 15.6818C7.36514 15.6946 8.78692 15.4236 10.1139 14.8845C11.4408 14.3454 12.6464 13.549 13.6601 12.5418C14.6738 11.5347 15.4754 10.337 16.0181 9.01862C16.5607 7.70027 16.8335 6.28772 16.8206 4.86346V4.34783C17.5452 3.79989 18.1757 3.13892 18.6876 2.39061C17.9921 2.691 17.2598 2.89879 16.5096 3.00858C17.2808 2.52741 17.8655 1.8012 18.1686 0.94804C17.4193 1.36242 16.617 1.67423 15.7836 1.87498C15.4328 1.48225 15.0014 1.16873 14.5184 0.955545C14.0354 0.742356 13.5121 0.634439 12.9836 0.639058C11.971 0.655182 11.0044 1.06199 10.2884 1.77343C9.57227 2.48487 9.1628 3.44515 9.14658 4.45115C9.12173 4.72994 9.15579 5.01082 9.24658 5.27576C7.72067 5.20253 6.22813 4.80618 4.86894 4.11326C3.50975 3.42034 2.31529 2.44686 1.36558 1.25801C1.02421 1.85448 0.845324 2.52908 0.846577 3.21523C0.860265 3.83795 1.01682 4.44936 1.30431 5.00288C1.59181 5.55641 2.00266 6.03745 2.50558 6.40936C1.88217 6.39657 1.27352 6.21856 0.742577 5.89373C0.741565 6.7761 1.05249 7.6308 1.62108 8.30864C2.18967 8.98649 2.97981 9.44441 3.85358 9.6025C3.51569 9.69167 3.16539 9.72523 2.81658 9.70185C2.57025 9.71956 2.32291 9.68571 2.09058 9.6025C2.34362 10.3668 2.82819 11.0347 3.47797 11.5149C4.12776 11.9951 4.91103 12.264 5.72058 12.285C4.35745 13.3427 2.68017 13.9223 0.950577 13.9332C0.636197 13.9511 0.320989 13.9176 0.0175781 13.8339C1.73361 15.0721 3.80801 15.723 5.92858 15.6887" fill="white"/>
</svg>
